# xmcd
#
# Track frame offsets:
#	150
#	14102
#	30462
#	43460
#	55787
#	69435
#	82995
#	101100
#	110587
#	123067
#	139975
#	152475
#	163700
#	175720
#	186462
#	196372
#	216762
#	228972
#	240122
#	259087
#	273082
#	285697
#	299612
#	311200
#	321780
#
# Disc length: 4445 seconds
#
# Revision: 1
# Processed by: cddbd v1.5PL3 Copyright (c) Steve Scherf et al.
# Submitted via: CDex 1.50Beta5
#
DISCID=6d115b19
DTITLE=Various Artist - 60's Best Selection
DYEAR=1900
DGENRE=Pop
TTITLE0=Simon and Garfunkel/The Sounds Of Silence
TTITLE1=The Righteous Brothers/Unchained Melody
TTITLE2=Simon and Garfunkel/When A Man Loves A Woman
TTITLE3=Simon and Garfunkel/My Girl
TTITLE4=Simon and Garfunkel/Oh, Pretty Woman
TTITLE5=Ben E King/Stand By Me
TTITLE6=Simon and Garfunkel/A Whiter Sade Of Pale
TTITLE7=Simon and Garfunkel/Yesterday
TTITLE8=Simon and Garfunkel/Love Me Tender
TTITLE9=Simon and Garfunkel/Satisfaction
TTITLE10=Simon and Garfunkel/I'm A Believer
TTITLE11=Simon and Garfunkel/Surfin' U.S.A
TTITLE12=Simon and Garfunkel/California Dreamin'
TTITLE13=Bee Gees/Massachusetts
TTITLE14=Simon and Garfunkel/Sealed With A Kiss
TTITLE15=Simon and Garfunkel/The House Of The Rising Sun
TTITLE16=Otis Redding/The Dock Of The Bay
TTITLE17=The Drifters/Save The Last Dance For Me
TTITLE18=Ray Charles/I Can't Stop Loving You
TTITLE19=Simon and Garfunkel/Green Green Grass Of The Home
TTITLE20=Bob Dylan/Blowin' In The Wind
TTITLE21=Simon and Garfunkel/Greenfields
TTITLE22=Diana Ross and Supremes/Where Did Our Love Go
TTITLE23=Louis Armstrong/What A Wonderful World
TTITLE24=The Platters/Only You
EXTD=
EXTT0=
EXTT1=
EXTT2=
EXTT3=
EXTT4=
EXTT5=
EXTT6=
EXTT7=
EXTT8=
EXTT9=
EXTT10=
EXTT11=
EXTT12=
EXTT13=
EXTT14=
EXTT15=
EXTT16=
EXTT17=
EXTT18=
EXTT19=
EXTT20=
EXTT21=
EXTT22=
EXTT23=
EXTT24=
PLAYORDER=
